<svg width="22" height="22" viewBox="0 0 22 22" fill="none" xmlns="http://www.w3.org/2000/svg">
<path d="M11 0.25C5.072 0.25 0.25 5.073 0.25 11C0.25 16.927 5.072 21.75 11 21.75C16.928 21.75 21.75 16.927 21.75 11C21.75 5.073 16.928 0.25 11 0.25ZM11 20.25C5.899 20.25 1.75 16.101 1.75 11C1.75 5.899 5.899 1.75 11 1.75C16.101 1.75 20.25 5.899 20.25 11C20.25 16.101 16.101 20.25 11 20.25ZM15.03 8.13599C15.323 8.42899 15.323 8.90402 15.03 9.19702L10.363 13.864C10.217 14.01 10.025 14.084 9.83301 14.084C9.64101 14.084 9.44901 14.011 9.30301 13.864L6.97 11.531C6.677 11.238 6.677 10.763 6.97 10.47C7.263 10.177 7.73801 10.177 8.03101 10.47L9.83401 12.273L13.97 8.13702C14.263 7.84402 14.737 7.84399 15.03 8.13599Z" fill="#25314C"/>
</svg>
