<svg width="24" height="24" viewBox="0 0 24 24" fill="none" xmlns="http://www.w3.org/2000/svg">
<path d="M13.414 12L18.707 6.70695C19.098 6.31695 19.098 5.68301 18.707 5.29301C18.316 4.90201 17.684 4.90201 17.293 5.29301L12 10.586L6.70701 5.29301C6.31601 4.90201 5.68401 4.90201 5.29301 5.29301C4.90201 5.68301 4.90201 6.31695 5.29301 6.70695L10.586 12L5.29301 17.293C4.90201 17.683 4.90201 18.3169 5.29301 18.7069C5.48801 18.9019 5.74401 19 6.00001 19C6.25601 19 6.51201 18.9019 6.70701 18.7069L12 13.414L17.293 18.7069C17.488 18.9019 17.744 19 18 19C18.256 19 18.512 18.9019 18.707 18.7069C19.098 18.3169 19.098 17.683 18.707 17.293L13.414 12Z" fill="#25314C"/>
</svg>
