<svg width="20" height="20" viewBox="0 0 20 20" fill="none" xmlns="http://www.w3.org/2000/svg">
<path d="M16.375 19.75H7.625C5.448 19.75 4.25 18.552 4.25 16.375V7.625C4.25 5.448 5.448 4.25 7.625 4.25H16.375C18.552 4.25 19.75 5.448 19.75 7.625V16.375C19.75 18.552 18.552 19.75 16.375 19.75ZM7.625 5.75C6.293 5.75 5.75 6.293 5.75 7.625V16.375C5.75 17.707 6.293 18.25 7.625 18.25H16.375C17.707 18.25 18.25 17.707 18.25 16.375V7.625C18.25 6.293 17.707 5.75 16.375 5.75H7.625ZM1.75 13V3.625C1.75 2.293 2.293 1.75 3.625 1.75H13C13.414 1.75 13.75 1.414 13.75 1C13.75 0.586 13.414 0.25 13 0.25H3.625C1.448 0.25 0.25 1.448 0.25 3.625V13C0.25 13.414 0.586 13.75 1 13.75C1.414 13.75 1.75 13.414 1.75 13Z" fill="#25314C"/>
</svg>
