<svg width="20" height="20" viewBox="0 0 20 20" fill="none" xmlns="http://www.w3.org/2000/svg">
<path d="M17.75 13V16C17.75 18.418 16.418 19.75 14 19.75H4C1.582 19.75 0.25 18.418 0.25 16V6C0.25 3.582 1.582 2.25 4 2.25H7C7.414 2.25 7.75 2.586 7.75 3C7.75 3.414 7.414 3.75 7 3.75H4C2.423 3.75 1.75 4.423 1.75 6V16C1.75 17.577 2.423 18.25 4 18.25H14C15.577 18.25 16.25 17.577 16.25 16V13C16.25 12.586 16.586 12.25 17 12.25C17.414 12.25 17.75 12.586 17.75 13ZM19.75 4.056C19.749 4.643 19.52 5.194 19.104 5.608L10.141 14.531C9.99999 14.671 9.81 14.75 9.612 14.75H6C5.586 14.75 5.25 14.414 5.25 14V10.389C5.25 10.191 5.32799 9.99999 5.46899 9.85999L14.392 0.895996C14.805 0.479996 15.357 0.251 15.944 0.25C15.945 0.25 15.946 0.25 15.947 0.25C16.533 0.25 17.084 0.478005 17.499 0.893005L19.108 2.50201C19.522 2.91701 19.751 3.469 19.75 4.056ZM15.617 6.96301L13.037 4.383L6.75 10.699V13.251H9.302L15.617 6.96301ZM18.25 4.05399C18.25 3.86799 18.178 3.69301 18.047 3.56201L16.438 1.953C16.307 1.822 16.132 1.75 15.947 1.75H15.946C15.76 1.75 15.586 1.82301 15.455 1.95401L14.096 3.319L16.681 5.90399L18.046 4.54501C18.177 4.41501 18.249 4.23999 18.25 4.05399Z" fill="#25314C"/>
</svg>
