<svg width="24" height="24" viewBox="0 0 24 24" fill="none" xmlns="http://www.w3.org/2000/svg">
<path d="M17 21.75H7C4.582 21.75 3.25 20.418 3.25 18V6C3.25 3.582 4.582 2.25 7 2.25H17C19.418 2.25 20.75 3.582 20.75 6V18C20.75 20.418 19.418 21.75 17 21.75ZM7 3.75C5.423 3.75 4.75 4.423 4.75 6V18C4.75 19.577 5.423 20.25 7 20.25H17C18.577 20.25 19.25 19.577 19.25 18V6C19.25 4.423 18.577 3.75 17 3.75H7ZM16.75 12C16.75 11.586 16.414 11.25 16 11.25H8C7.586 11.25 7.25 11.586 7.25 12C7.25 12.414 7.586 12.75 8 12.75H16C16.414 12.75 16.75 12.414 16.75 12ZM13.75 16C13.75 15.586 13.414 15.25 13 15.25H8C7.586 15.25 7.25 15.586 7.25 16C7.25 16.414 7.586 16.75 8 16.75H13C13.414 16.75 13.75 16.414 13.75 16ZM16.75 8C16.75 7.586 16.414 7.25 16 7.25H8C7.586 7.25 7.25 7.586 7.25 8C7.25 8.414 7.586 8.75 8 8.75H16C16.414 8.75 16.75 8.414 16.75 8Z" fill="#25314C"/>
</svg>
