<svg width="24" height="24" viewBox="0 0 24 24" fill="none" xmlns="http://www.w3.org/2000/svg">
<path d="M21.5 4.5V8C21.5 8.276 21.276 8.5 21 8.5C20.724 8.5 20.5 8.276 20.5 8V4.5C20.5 3.78 20.22 3.5 19.5 3.5H16C15.724 3.5 15.5 3.276 15.5 3C15.5 2.724 15.724 2.5 16 2.5H19.5C20.771 2.5 21.5 3.229 21.5 4.5ZM8 2.5H4.5C3.229 2.5 2.5 3.229 2.5 4.5V8C2.5 8.276 2.724 8.5 3 8.5C3.276 8.5 3.5 8.276 3.5 8V4.5C3.5 3.78 3.78 3.5 4.5 3.5H8C8.276 3.5 8.5 3.276 8.5 3C8.5 2.724 8.276 2.5 8 2.5ZM8 20.5H4.5C3.78 20.5 3.5 20.22 3.5 19.5V16C3.5 15.724 3.276 15.5 3 15.5C2.724 15.5 2.5 15.724 2.5 16V19.5C2.5 20.771 3.229 21.5 4.5 21.5H8C8.276 21.5 8.5 21.276 8.5 21C8.5 20.724 8.276 20.5 8 20.5ZM21 15.5C20.724 15.5 20.5 15.724 20.5 16V19.5C20.5 20.22 20.22 20.5 19.5 20.5H16C15.724 20.5 15.5 20.724 15.5 21C15.5 21.276 15.724 21.5 16 21.5H19.5C20.771 21.5 21.5 20.771 21.5 19.5V16C21.5 15.724 21.276 15.5 21 15.5Z" fill="#25314C"/>
</svg>
