<svg width="20" height="20" viewBox="0 0 20 20" fill="none" xmlns="http://www.w3.org/2000/svg">
<path d="M6.75 19C6.75 19.414 6.414 19.75 6 19.75H2.5C1.091 19.75 0.25 18.909 0.25 17.5V14C0.25 13.586 0.586 13.25 1 13.25C1.414 13.25 1.75 13.586 1.75 14V17.5C1.75 18.089 1.911 18.25 2.5 18.25H6C6.414 18.25 6.75 18.586 6.75 19ZM1 6.75C1.414 6.75 1.75 6.414 1.75 6V2.5C1.75 1.911 1.911 1.75 2.5 1.75H6C6.414 1.75 6.75 1.414 6.75 1C6.75 0.586 6.414 0.25 6 0.25H2.5C1.091 0.25 0.25 1.091 0.25 2.5V6C0.25 6.414 0.586 6.75 1 6.75ZM17.5 0.25H14C13.586 0.25 13.25 0.586 13.25 1C13.25 1.414 13.586 1.75 14 1.75H17.5C18.089 1.75 18.25 1.911 18.25 2.5V6C18.25 6.414 18.586 6.75 19 6.75C19.414 6.75 19.75 6.414 19.75 6V2.5C19.75 1.091 18.909 0.25 17.5 0.25ZM19 13.25C18.586 13.25 18.25 13.586 18.25 14V17.5C18.25 18.089 18.089 18.25 17.5 18.25H14C13.586 18.25 13.25 18.586 13.25 19C13.25 19.414 13.586 19.75 14 19.75H17.5C18.909 19.75 19.75 18.909 19.75 17.5V14C19.75 13.586 19.414 13.25 19 13.25ZM11.75 9H14.25C14.75 9 15 8.75 15 8.25V5.75C15 5.25 14.75 5 14.25 5H11.75C11.25 5 11 5.25 11 5.75V8.25C11 8.75 11.25 9 11.75 9ZM8.25 11H5.75C5.25 11 5 11.25 5 11.75V14.25C5 14.75 5.25 15 5.75 15H8.25C8.75 15 9 14.75 9 14.25V11.75C9 11.25 8.75 11 8.25 11ZM15 14.25V11.75C15 11.25 14.75 11 14.25 11H11.75C11.25 11 11 11.25 11 11.75V14.25C11 14.75 11.25 15 11.75 15H14.25C14.75 15 15 14.75 15 14.25ZM8.25 5H5.75C5.25 5 5 5.25 5 5.75V8.25C5 8.75 5.25 9 5.75 9H8.25C8.75 9 9 8.75 9 8.25V5.75C9 5.25 8.75 5 8.25 5Z" fill="#25314C"/>
</svg>
