<svg width="24" height="24" viewBox="0 0 24 24" fill="none" xmlns="http://www.w3.org/2000/svg">
<path d="M19.7071 14.707L12.708 21.7061C12.615 21.7991 12.5051 21.8721 12.3821 21.9231C12.2601 21.9741 12.13 22 12 22C11.87 22 11.74 21.9731 11.618 21.9231C11.495 21.8721 11.385 21.7991 11.292 21.7061L4.29301 14.707C3.90201 14.316 3.90201 13.684 4.29301 13.293C4.68401 12.902 5.31607 12.902 5.70707 13.293L11 18.5859V3C11 2.448 11.447 2 12 2C12.553 2 13 2.448 13 3V18.5859L18.293 13.293C18.684 12.902 19.3161 12.902 19.7071 13.293C20.0981 13.684 20.0981 14.316 19.7071 14.707Z" fill="#25314C"/>
</svg>
